PathFileType	4	(X/Y/Z)	Patient4_TMGait_0pt2_01_right_10.trc.trc
DataRate	CameraRate	NumFrames	NumMarkers	Units	OrigDataRate	OrigDataStartFrame	OrigNumFrames
41.543026706231	41.543026706231	5	33	mm	41.543026706231	18	       141
Frame#	Time	Sacral			L.Shoulder			Chest			R.Shoulder			Neck			R.ASIS			L.ASIS			R.Thigh.Superior			R.Thigh.Lateral			R.Thigh.Inferior			R.Patella			L.Thigh.Superior			L.Thigh.Lateral			L.Thigh.Inferior			L.Patella			L.Shank.Superior			L.Shank.Lateral			L.Shank.Inferior			R.Shank.Superior			R.Shank.Lateral			R.Shank.Inferior			R.Heel			R.Midfoot.Superior			R.Midfoot.Lateral			R.Toe			L.Heel			L.Midfoot.Lateral			L.Midfoot.Superior			L.Toe			L.Elbow			L.Wrist			R.Elbow			R.Wrist			
		X1	Y1	Z1	X2	Y2	Z2	X3	Y3	Z3	X4	Y4	Z4	X5	Y5	Z5	X6	Y6	Z6	X7	Y7	Z7	X8	Y8	Z8	X9	Y9	Z9	X10	Y10	Z10	X11	Y11	Z11	X12	Y12	Z12	X13	Y13	Z13	X14	Y14	Z14	X15	Y15	Z15	X16	Y16	Z16	X17	Y17	Z17	X18	Y18	Z18	X19	Y19	Z19	X20	Y20	Z20	X21	Y21	Z21	X22	Y22	Z22	X23	Y23	Z23	X24	Y24	Z24	X25	Y25	Z25	X26	Y26	Z26	X27	Y27	Z27	X28	Y28	Z28	X29	Y29	Z29	X30	Y30	Z30	X31	Y31	Z31	X32	Y32	Z32	X33	Y33	Z33	

18	21.509214285714	789.510127345746	1012.576723977730	395.666977734627	1002.751599790102	1440.391386975461	244.970490855599	1070.574555114490	1372.224145859472	422.608169447915	955.691156943003	1444.669236636674	577.228028654889	952.340526400462	1501.030002101075	398.535734266970	997.201069390342	953.773186264713	552.033587844654	1027.155488708668	962.765102377783	278.621224277642	1061.190834515264	764.313187962046	530.347822699505	998.884068353153	650.759040504358	600.229864189385	1082.892270858882	600.770462830686	524.707334811454	1101.250433537461	512.207107476362	545.283482115449	1045.044852231557	737.508603782873	320.093242935126	949.635595369385	627.367701100938	249.926971831322	1012.641283568914	545.584309728399	325.978026052896	1002.457732177121	478.239686435495	337.303215116571	970.998900747234	407.947262431163	328.575824090737	876.920512701182	299.647262265348	274.395566417129	907.755091664455	187.806104970844	353.867851305632	1067.843697756794	425.054811642069	559.880071915840	991.549422274628	329.831276280938	629.484103432358	1038.919419455285	228.593056925393	581.826765137490	907.529821890538	59.215076922814	564.032631358450	1079.674315599998	113.163461885941	601.345208888471	992.497508057183	48.297853418758	636.638939533226	1198.612630805596	62.774253531352	626.118722678956	764.215622847862	39.188657174618	390.550124720085	841.791636790904	35.901360954429	313.376675758022	925.351585158016	95.901865582993	344.114134092163	1053.921743553404	40.377318335312	320.371544628793	1161.879433715438	1158.916539584833	93.101906120789	1420.468383447294	1128.057341811978	119.104936455186	809.134754437179	1125.224125259500	668.721220186716	790.382201016343	863.488665010651	665.684133899504	
19	21.533285714286	789.975635792448	1012.058828036796	397.561481454280	1003.680441353698	1439.921305450660	248.583577650766	1069.514270636596	1372.545032931311	427.156571360818	953.003035660732	1445.682613477852	580.230438523221	951.434172884154	1500.877608106518	401.469836886548	995.966856211998	953.479596482806	556.263813596893	1028.726923660532	962.662021794302	283.046167753983	1058.760980637629	763.066637218085	535.956696593030	994.139426833040	649.610163545871	604.301816393661	1078.970963315157	600.013237934860	529.727597044837	1096.437775521046	513.781206242548	548.791903946059	1042.893146432413	736.449449240696	323.911010452368	946.123101477597	628.129724834222	251.541525745265	1006.620529513852	545.070415824931	327.819378460358	995.212496508425	478.354340063660	338.624438932097	964.441137053711	408.472765462134	329.393775770905	870.862328087802	299.955749650078	274.801727531038	902.232012995041	188.005917422148	354.112898946048	1068.134802570213	425.461561191202	563.228790614776	997.045501373500	325.491297927687	632.923887159431	1049.709039060439	226.579842957296	584.411491026398	925.962265350993	51.647683480781	566.296476876782	1096.915404284751	110.687396226100	602.609176810797	1011.956680862863	42.611571717573	638.132571639854	1218.225304124708	63.998314888014	626.048431140619	759.291326559861	39.006432728449	390.521877877108	836.848101148230	35.783489610849	313.329370528294	920.355855110055	95.854597028111	344.142891794564	1048.992845830545	40.459117146942	320.417671685893	1167.055612109198	1162.190335066872	96.801810558055	1426.480518332145	1142.745280000339	123.177840898825	798.282340026939	1130.654700690546	668.330356740679	772.725951406878	869.390065753107	662.269582518825	
20	21.557357142857	790.756860936644	1011.155508347642	400.084547726645	1004.408184520125	1439.190640622745	252.724798720315	1068.538167752898	1372.598751445347	432.093690963252	950.647317904420	1446.300917885794	583.839560897944	950.558608577060	1500.428954380199	404.991812593413	995.258819370697	952.739300718174	560.767899285668	1030.446647449584	962.384790315179	287.731157704819	1057.029081279086	761.400912205548	541.488469082524	989.958363883860	647.887438827876	608.013859032723	1075.699836902354	598.795129634739	534.374475908356	1091.745087773312	514.418708202358	551.831433325493	1041.096006948885	735.259431427460	327.663154342590	942.914613671640	628.751231955708	253.355501411085	1001.066419983124	544.461411885478	329.709717711384	988.528612881698	478.360683852916	340.001714263552	958.275617116755	408.889550181045	330.312801530718	865.053943126639	300.296629702292	275.271870132806	896.858695765926	188.181587058946	354.367288842851	1067.762706875237	425.193262149249	566.043563594380	1000.919485090616	321.667741583814	635.659510790858	1057.561299555070	224.842554373538	586.281349500530	939.711356982155	46.603316857411	567.706909962030	1109.696141301841	108.520320510797	603.089194263039	1026.298939426489	38.740794673132	638.962070589966	1232.396291158930	64.181613428903	625.570381246672	754.361128598639	38.857633995922	390.475269765643	831.902076586900	35.675906309995	313.284758757891	915.362744697254	95.813584955065	344.160548297759	1044.056064038441	40.527698069047	320.460377418361	1171.588262329956	1164.874588470315	101.076943417617	1431.360126293339	1155.856536922446	127.649703290362	789.607452582400	1134.898858997644	668.411912749148	758.856577402366	874.120773945364	659.305004300424	
21	21.581428571429	791.842256498571	1009.986159299152	403.213606624118	1004.994489547446	1438.299670590026	257.368350613778	1067.699456314667	1372.458513385402	437.400118799767	948.643792719626	1446.577718128970	588.035677367154	949.750585138293	1499.766627897763	409.085675032338	995.092120676412	951.680877279546	565.530984467012	1032.311237522595	961.992860866607	292.658518658211	1055.999823397484	759.435496309899	546.814392096081	986.443284896869	645.778944975868	611.352323232615	1073.048221672990	597.228919661218	538.544543661077	1087.308108471646	514.223757727571	554.386826614485	1039.680365146305	733.975563766780	331.344876928269	940.041690161026	629.241477223586	255.418132192403	996.071092902663	543.782091300182	331.687656701796	982.509433454608	478.264596009030	341.489184554484	952.586422333113	409.200588580760	331.378999044243	859.553106759789	300.697315169394	275.845557315516	891.671295781999	188.344278751677	354.647036475802	1066.775185154649	424.320704677513	568.306963235218	1003.145754868826	318.331393247960	637.692661401889	1062.476578571482	223.251382806872	587.421603333089	948.690178549608	43.610213393411	568.304866422698	1118.027010718687	106.596894146938	602.829115827437	1035.520796936221	36.410901618218	639.193537699369	1241.314364171460	63.406602264509	624.756257803985	749.431820453623	38.763933062348	390.414013549912	826.962569042267	35.596032953421	313.249102645000	910.388903020358	95.790750544137	344.167290290523	1039.117463270512	40.575575984287	320.497240628482	1175.511123969263	1167.023969249704	105.879763331702	1435.258410071657	1167.404186275574	132.447405042954	783.049302874464	1137.931660061391	669.144949546025	748.556224678410	877.570503338906	657.079644620081	
22	21.605500000000	793.192855179922	1008.693772986486	406.905894710152	1005.513877614843	1437.356739130399	262.465897880013	1067.055489889583	1372.202595754533	443.036808181110	947.015110260223	1446.586243450915	592.767299407759	949.056849082780	1498.986558383376	413.708696494374	995.442670678164	950.454916278421	570.532740244165	1034.292673371859	961.545234912782	297.805615336035	1055.595600448145	757.301250300677	551.851996249742	983.618502096640	643.499310953921	614.374885769217	1070.905363287892	595.442808101486	542.208425218420	1083.204002120571	513.362073836713	556.512135724487	1038.640058439435	732.645500614854	334.988524815774	937.524648502530	629.619463360431	257.779038610573	991.696689523313	543.064585605107	333.810510725147	977.219848776179	478.078576146419	343.154561211822	947.435218176485	409.415498677997	332.644242963323	854.402168842398	301.185380910794	276.569861957476	886.694893573411	188.505459178556	354.974438357099	1065.235993517631	422.973653948826	570.076503621153	1003.822609475715	315.442102416039	639.115579437588	1064.672503013799	221.717567078497	587.909450659095	953.215129244572	42.136843328335	568.226512071689	1122.257062284205	104.882727463256	601.967482367299	1040.034806634198	35.288776681677	638.956302450699	1245.535626603965	61.873585349865	623.710673864611	744.511173062279	38.747829374244	390.345976229260	822.038767930934	35.563984111657	313.229937307545	905.451444021387	95.798594496171	344.167195541235	1034.183139680168	40.596060476043	320.526850565281	1178.880801230446	1168.708838880136	111.146214704109	1438.338844916091	1177.434076021697	137.498133656267	778.481251925106	1139.818765089704	670.679383213684	741.527230967346	879.756129766114	655.883017247595	
